HIERARCHY
ROOT Hips
{
	OFFSET 0.000000 0.000000 0.000000
	CHANNELS 6 Xposition Yposition Zposition Xrotation Yrotation Zrotation
	JOINT LeftUpLeg_virtual
	{
		OFFSET 0.000000 0.000000 0.000000
		CHANNELS 3 Xrotation Yrotation Zrotation
		JOINT LeftUpLeg
		{
			OFFSET 13.026900 -6.336304 -1.092800
			CHANNELS 3 Xrotation Yrotation Zrotation
			JOINT LeftLeg
			{
				OFFSET 0.524474 -46.096886 9.782700
				CHANNELS 3 Xrotation Yrotation Zrotation
				JOINT LeftFoot
				{
					OFFSET -0.524474 -53.427422 -12.948200
					CHANNELS 3 Xrotation Yrotation Zrotation
					JOINT LeftToeBase
					{
						OFFSET 0.192200 -14.009700 16.364100
						CHANNELS 3 Xrotation Yrotation Zrotation
						JOINT LeftToe_End
						{
							OFFSET -1.784700 -0.561700 9.474800
							CHANNELS 3 Xrotation Yrotation Zrotation
							End Site
							{
								OFFSET 0 0 0
							}
						}
					}
				}
			}
		}
	}
	JOINT RightUpLeg_virtual
	{
		OFFSET 0.000000 0.000000 0.000000
		CHANNELS 3 Xrotation Yrotation Zrotation
		JOINT RightUpLeg
		{
			OFFSET -12.883000 -6.336304 -1.092800
			CHANNELS 3 Xrotation Yrotation Zrotation
			JOINT RightLeg
			{
				OFFSET -0.524587 -46.096825 9.782800
				CHANNELS 3 Xrotation Yrotation Zrotation
				JOINT RightFoot
				{
					OFFSET 0.524587 -53.427383 -12.948300
					CHANNELS 3 Xrotation Yrotation Zrotation
					JOINT RightToeBase
					{
						OFFSET -0.192200 -14.009700 16.364100
						CHANNELS 3 Xrotation Yrotation Zrotation
						JOINT RightToe_End
						{
							OFFSET 1.784700 -0.561700 9.474800
							CHANNELS 3 Xrotation Yrotation Zrotation
							End Site
							{
								OFFSET 0 0 0
							}
						}
					}
				}
			}
		}
	}
	JOINT Spine_virtual
	{
		OFFSET 0.000000 0.000000 0.000000
		CHANNELS 3 Xrotation Yrotation Zrotation
		JOINT Spine
		{
			OFFSET 0.072000 7.257294 -0.789700
			CHANNELS 3 Xrotation Yrotation Zrotation
			JOINT Spine1
			{
				OFFSET 0.000000 12.508769 -0.658067
				CHANNELS 3 Xrotation Yrotation Zrotation
				JOINT Spine1_split
				{
					OFFSET 0.000000 12.508769 -0.658067
					CHANNELS 3 Xrotation Yrotation Zrotation
					JOINT Spine2
					{
						OFFSET 0.000000 12.508769 -0.658067
						CHANNELS 3 Xrotation Yrotation Zrotation
						JOINT Neck_virtual
						{
							OFFSET 0.000000 0.000000 0.000000
							CHANNELS 3 Xrotation Yrotation Zrotation
							JOINT Neck
							{
								OFFSET 0.000000 14.033295 7.520400
								CHANNELS 3 Xrotation Yrotation Zrotation
								JOINT Head
								{
									OFFSET 0.000000 8.198502 5.703100
									CHANNELS 3 Xrotation Yrotation Zrotation
									JOINT HeadTop_End
									{
										OFFSET 0.000000 17.760803 13.332701
										CHANNELS 3 Xrotation Yrotation Zrotation
										End Site
										{
											OFFSET 0 0 0
										}
									}
								}
							}
						}
						JOINT LeftShoulder_virtual
						{
							OFFSET 0.000000 0.000000 0.000000
							CHANNELS 3 Xrotation Yrotation Zrotation
							JOINT LeftShoulder
							{
								OFFSET 6.292450 5.785301 -0.669000
								CHANNELS 3 Xrotation Yrotation Zrotation
								JOINT LeftShoulder_split
								{
									OFFSET 6.292450 5.785301 -0.669000
									CHANNELS 3 Xrotation Yrotation Zrotation
									JOINT LeftArm
									{
										OFFSET 13.907140 -6.093903 1.965100
										CHANNELS 3 Xrotation Yrotation Zrotation
										JOINT LeftForeArm
										{
											OFFSET 34.140198 0.000000 0.000000
											CHANNELS 3 Xrotation Yrotation Zrotation
											JOINT LeftHand
											{
												OFFSET 40.960209 0.000000 0.000000
												CHANNELS 3 Xrotation Yrotation Zrotation
												End Site
												{
													OFFSET 0 0 0
												}
											}
										}
									}
								}
							}
						}
						JOINT RightShoulder_virtual
						{
							OFFSET 0.000000 0.000000 0.000000
							CHANNELS 3 Xrotation Yrotation Zrotation
							JOINT RightShoulder
							{
								OFFSET -6.292450 5.785301 -0.669000
								CHANNELS 3 Xrotation Yrotation Zrotation
								JOINT RightShoulder_split
								{
									OFFSET -6.292450 5.785301 -0.669000
									CHANNELS 3 Xrotation Yrotation Zrotation
									JOINT RightArm
									{
										OFFSET -13.907140 -6.093903 1.965100
										CHANNELS 3 Xrotation Yrotation Zrotation
										JOINT RightForeArm
										{
											OFFSET -34.140198 0.000000 0.000000
											CHANNELS 3 Xrotation Yrotation Zrotation
											JOINT RightHand
											{
												OFFSET -40.960209 0.000000 0.000000
												CHANNELS 3 Xrotation Yrotation Zrotation
												End Site
												{
													OFFSET 0 0 0
												}
											}
										}
									}
								}
							}
						}
					}
				}
			}
		}
	}
}
MOTION
Frames: 4
Frame Time: 0.03333333
-3.408417 92.677940 -147.184128 0.000000 0.000000 0.000000 155.663085 -81.063629 154.343752 -44.985337 -13.055493 34.480140 23.154171 -10.879710 -0.800285 29.272312 1.795998 -4.458586 0.101523 -0.000020 0.000014 0.000000 0.000000 0.000000 155.663085 -81.063629 154.343752 -50.085183 2.780855 -24.735504 57.828575 3.128570 0.091555 -3.926694 -0.959657 8.827322 -6.361750 0.000003 0.000002 0.000000 0.000000 0.000000 155.663085 -81.063629 154.343752 5.019119 10.943455 -2.742666 5.648443 6.889298 -0.879003 0.000000 0.000000 0.000000 0.000000 0.000000 0.000000 4.702461 17.214682 0.847255 7.086035 5.084692 -5.374676 -9.934687 17.069780 4.183230 0.000000 0.000000 0.000000 4.702461 17.214682 0.847255 4.482666 5.962514 -14.443010 0.000000 0.000000 0.000000 -53.614813 -34.544611 -49.032719 0.000111 -80.971018 0.000069 0.000000 0.000000 0.000000 4.702461 17.214682 0.847255 -14.733259 5.625416 -4.243746 0.000000 0.000000 0.000000 -103.836982 41.709339 125.051516 0.000019 29.459156 -0.000006 0.000000 0.000000 0.000000 
0.098458 93.471565 -156.678894 0.000000 0.000000 0.000000 152.708222 -81.911187 148.329087 -52.419130 -15.918003 31.482237 35.521625 -8.230444 -0.443256 21.835013 0.616256 -6.928042 -0.000008 0.000004 0.000012 0.000000 0.000000 0.000000 152.708222 -81.911187 148.329087 -52.664102 -1.039751 -17.123482 60.326553 1.698939 0.146309 -0.508286 -0.814673 9.973135 -10.399942 0.000001 0.000011 0.000000 0.000000 0.000000 152.708222 -81.911187 148.329087 5.121564 10.398726 -0.710321 6.079587 5.798297 -0.521033 0.000000 0.000000 0.000000 0.000000 0.000000 0.000000 5.085131 16.136091 1.189170 6.289635 5.421250 -4.908950 -11.393615 17.889734 5.359087 0.000000 0.000000 0.000000 5.085131 16.136091 1.189170 3.544246 4.756007 -11.623020 0.000000 0.000000 0.000000 -54.038831 -33.116439 -50.381548 -0.000250 -81.882357 -0.000284 0.000000 0.000000 0.000000 5.085131 16.136091 1.189170 -14.733696 2.115965 -4.463087 0.000000 0.000000 0.000000 -107.662476 41.165943 127.346500 -0.000003 29.080695 0.000016 0.000000 0.000000 0.000000 
0.098458 93.471565 -156.678894 0.000000 0.000000 0.000000 152.708222 -81.911187 148.329087 -52.419130 -15.918003 31.482237 35.521625 -8.230444 -0.443256 21.835013 0.616256 -6.928042 -0.000008 0.000004 0.000012 0.000000 0.000000 0.000000 152.708222 -81.911187 148.329087 -52.664102 -1.039751 -17.123482 60.326553 1.698939 0.146309 -0.508286 -0.814673 9.973135 -10.399942 0.000001 0.000011 0.000000 0.000000 0.000000 152.708222 -81.911187 148.329087 5.121564 10.398726 -0.710321 6.079587 5.798297 -0.521033 0.000000 0.000000 0.000000 0.000000 0.000000 0.000000 5.085131 16.136091 1.189170 6.289635 5.421250 -4.908950 -11.393615 17.889734 5.359087 0.000000 0.000000 0.000000 5.085131 16.136091 1.189170 3.544246 4.756007 -11.623020 0.000000 0.000000 0.000000 -54.038831 -33.116439 -50.381548 -0.000250 -81.882357 -0.000284 0.000000 0.000000 0.000000 5.085131 16.136091 1.189170 -14.733696 2.115965 -4.463087 0.000000 0.000000 0.000000 -107.662476 41.165943 127.346500 -0.000003 29.080695 0.000016 0.000000 0.000000 0.000000 
0.098458 93.471565 -156.678894 0.000000 0.000000 0.000000 152.708222 -81.911187 148.329087 -52.419130 -15.918003 31.482237 35.521625 -8.230444 -0.443256 21.835013 0.616256 -6.928042 -0.000008 0.000004 0.000012 0.000000 0.000000 0.000000 152.708222 -81.911187 148.329087 -52.664102 -1.039751 -17.123482 60.326553 1.698939 0.146309 -0.508286 -0.814673 9.973135 -10.399942 0.000001 0.000011 0.000000 0.000000 0.000000 152.708222 -81.911187 148.329087 5.121564 10.398726 -0.710321 6.079587 5.798297 -0.521033 0.000000 0.000000 0.000000 0.000000 0.000000 0.000000 5.085131 16.136091 1.189170 6.289635 5.421250 -4.908950 -11.393615 17.889734 5.359087 0.000000 0.000000 0.000000 5.085131 16.136091 1.189170 3.544246 4.756007 -11.623020 0.000000 0.000000 0.000000 -54.038831 -33.116439 -50.381548 -0.000250 -81.882357 -0.000284 0.000000 0.000000 0.000000 5.085131 16.136091 1.189170 -14.733696 2.115965 -4.463087 0.000000 0.000000 0.000000 -107.662476 41.165943 127.346500 -0.000003 29.080695 0.000016 0.000000 0.000000 0.000000 
